<svg width="74" height="14" viewBox="0 0 74 14" fill="none" xmlns="http://www.w3.org/2000/svg">
<path d="M7 0L8.85152 4.4516L13.6574 4.83688L9.99583 7.9734L11.1145 12.6631L7 10.15L2.8855 12.6631L4.00417 7.9734L0.342604 4.83688L5.14848 4.4516L7 0Z" fill="#F0BA43"/>
<path d="M22 0L23.8515 4.4516L28.6574 4.83688L24.9958 7.9734L26.1145 12.6631L22 10.15L17.8855 12.6631L19.0042 7.9734L15.3426 4.83688L20.1485 4.4516L22 0Z" fill="#F0BA43"/>
<path d="M37 0L38.8515 4.4516L43.6574 4.83688L39.9958 7.9734L41.1145 12.6631L37 10.15L32.8855 12.6631L34.0042 7.9734L30.3426 4.83688L35.1485 4.4516L37 0Z" fill="#F0BA43"/>
<path d="M52 0L53.8515 4.4516L58.6574 4.83688L54.9958 7.9734L56.1145 12.6631L52 10.15L47.8855 12.6631L49.0042 7.9734L45.3426 4.83688L50.1485 4.4516L52 0Z" fill="#F0BA43"/>
<path d="M68.6211 4.54785L68.6797 4.68848L68.832 4.70117L73.0381 5.03711L69.833 7.7832L69.7168 7.88281L69.7529 8.03125L70.7314 12.1357L67.1299 9.93652L67 9.85742L66.8701 9.93652L63.2676 12.1357L64.2471 8.03125L64.2832 7.88281L64.167 7.7832L60.9609 5.03711L65.168 4.70117L65.3203 4.68848L65.3789 4.54785L67 0.649414L68.6211 4.54785Z" fill="white" stroke="#BBBBBB" stroke-width="0.5"/>
<path d="M62.8854 12.6631L66.9999 10.15V0L65.1484 4.4516L60.3425 4.83688L64.0041 7.9734L62.8854 12.6631Z" fill="#F0BA43"/>
</svg>
