<svg width="32" height="32" viewBox="0 0 32 32" fill="none" xmlns="http://www.w3.org/2000/svg">
<g clip-path="url(#clip0_1_453)">
<path d="M31.4628 0.0601759C31.3016 -0.0143862 31.1223 -0.0180112 30.9636 0.040176C30.9636 0.040051 30.9636 0.0399885 30.9635 0.0398635L0.586063 11.194C0.343815 11.283 0.17669 11.5063 0.159628 11.7638C0.142441 12.0213 0.278627 12.2648 0.507001 12.385L9.12364 16.9215V27.4969C9.12364 27.7893 9.31807 28.0461 9.59939 28.1254C9.65814 28.142 9.71782 28.15 9.7767 28.15C9.9012 28.15 10.0219 28.1132 10.1258 28.0473C10.1261 28.0476 10.1263 28.0479 10.1267 28.0483L17.2079 23.5546L26.076 31.8245C26.1989 31.9391 26.3587 31.9999 26.5214 31.9999C26.5933 31.9999 26.6658 31.988 26.7358 31.9637C26.9646 31.8841 27.1305 31.6845 27.167 31.445L31.8343 0.751109C31.878 0.463736 31.7266 0.182175 31.4628 0.0601759ZM9.71757 15.7581L2.41549 11.9138L27.1568 2.82903L9.71757 15.7581ZM10.4297 16.8561L26.7693 4.7424L13.872 19.5821C13.8479 19.6098 13.8272 19.6392 13.8085 19.6696C13.8084 19.6694 13.8083 19.6694 13.8081 19.6692L10.4297 25.1815V16.8561ZM11.8059 25.4356L14.504 21.0332L16.2206 22.634L11.8059 25.4356ZM26.0616 30.0252L15.2715 19.9629L30.2045 2.78085L26.0616 30.0252Z" fill="#1D1D1D"/>
<path d="M24.6318 12.792C24.3648 12.5496 23.9516 12.5697 23.7094 12.8368L19.4468 17.5344C19.2044 17.8015 19.2244 18.2145 19.4915 18.4568C19.6166 18.5703 19.7737 18.6262 19.9302 18.6262C20.108 18.6262 20.2852 18.554 20.414 18.412L24.6767 13.7144C24.919 13.4474 24.899 13.0344 24.6318 12.792Z" fill="#1D1D1D"/>
<path d="M26.0623 11.2169C25.7956 10.9741 25.3825 10.9937 25.1398 11.2605L25.1295 11.2718C24.8869 11.5387 24.9064 11.9517 25.1732 12.1943C25.2983 12.3082 25.4556 12.3643 25.6124 12.3643C25.7899 12.3643 25.9669 12.2924 26.0957 12.1507L26.106 12.1394C26.3487 11.8725 26.3291 11.4595 26.0623 11.2169Z" fill="#1D1D1D"/>
</g>
<defs>
<clipPath id="clip0_1_453">
<rect width="32" height="32" fill="white"/>
</clipPath>
</defs>
</svg>
