<svg width="32" height="32" viewBox="0 0 32 32" fill="none" xmlns="http://www.w3.org/2000/svg">
<path d="M28.7773 8.38801H20.8565C22.0881 7.50202 22.85 6.28821 22.9475 5.1187C23.0538 3.88717 22.3627 2.43414 20.1389 2.06202C19.8908 2.01772 19.6427 2 19.4035 2C18.4378 2 17.6404 2.3544 17.0379 3.04547C16.4709 3.69225 16.1608 4.56938 15.9924 5.45537C15.8241 4.56938 15.5051 3.68339 14.9469 3.04547C14.3533 2.3544 13.5559 2 12.5902 2C12.3598 2 12.1118 2.01772 11.8548 2.06202C9.63099 2.43414 8.94877 3.88717 9.04623 5.1187C9.14369 6.28821 9.91451 7.50202 11.1372 8.38801H3.2164C2.1089 8.38801 1.21405 9.28286 1.21405 10.3904V11.6573C1.21405 12.7648 2.1089 13.6597 3.2164 13.6597H3.80115V27.5166C3.80115 28.8899 4.9175 30.0062 6.29079 30.0062H25.7029C27.0762 30.0062 28.1926 28.8899 28.1926 27.5166V13.6597H28.7773C29.8848 13.6597 30.7797 12.7648 30.7797 11.6573V10.3904C30.7797 9.28286 29.8848 8.38801 28.7773 8.38801ZM18.0479 3.91375C18.3935 3.51505 18.8365 3.32899 19.4124 3.32899C19.5718 3.32899 19.749 3.34671 19.9262 3.37329C20.5996 3.48847 21.7248 3.85173 21.6273 5.01238C21.521 6.29707 19.8908 8.12221 17.1797 8.36143C17.0911 7.11218 17.1531 4.95036 18.0479 3.91375ZM10.3752 5.01238C10.2778 3.85173 11.403 3.48847 12.0763 3.37329C12.2535 3.34671 12.4307 3.32899 12.5902 3.32899C13.1661 3.32899 13.6091 3.52391 13.9546 3.91375C14.8495 4.9415 14.9115 7.10332 14.8229 8.36143C12.1118 8.12221 10.4815 6.29707 10.3752 5.01238ZM26.8636 27.5077C26.8636 28.1457 26.3408 28.6684 25.7029 28.6684H6.29079C5.65288 28.6684 5.13014 28.1457 5.13014 27.5077V13.6597H26.8547V27.5077H26.8636ZM29.4507 11.6573C29.4507 12.0294 29.1494 12.3307 28.7773 12.3307H27.5281H4.47451H3.22526C2.85314 12.3307 2.5519 12.0294 2.5519 11.6573V10.3904C2.5519 10.0182 2.85314 9.717 3.22526 9.717H28.7773C29.1494 9.717 29.4507 10.0182 29.4507 10.3904V11.6573Z" fill="black"/>
<path d="M12.528 20.0653C13.8393 20.0653 14.9025 19.0021 14.9025 17.6909C14.9025 16.3796 13.8393 15.3164 12.528 15.3164C11.2168 15.3164 10.1536 16.3796 10.1536 17.6909C10.1536 19.0021 11.2168 20.0653 12.528 20.0653ZM12.528 16.6454C13.1039 16.6454 13.5735 17.115 13.5735 17.6909C13.5735 18.2668 13.1039 18.7363 12.528 18.7363C11.9521 18.7363 11.4826 18.2668 11.4826 17.6909C11.4826 17.115 11.9521 16.6454 12.528 16.6454Z" fill="black"/>
<path d="M19.4741 22.2539C18.1628 22.2539 17.0996 23.3171 17.0996 24.6284C17.0996 25.9396 18.1628 27.0028 19.4741 27.0028C20.7853 27.0028 21.8485 25.9396 21.8485 24.6284C21.8485 23.3171 20.7853 22.2539 19.4741 22.2539ZM19.4741 25.6827C18.8982 25.6827 18.4286 25.2131 18.4286 24.6372C18.4286 24.0613 18.8982 23.5918 19.4741 23.5918C20.05 23.5918 20.5195 24.0613 20.5195 24.6372C20.5195 25.2131 20.05 25.6827 19.4741 25.6827Z" fill="black"/>
<path d="M10.8091 26.3558C10.942 26.4887 11.1103 26.5508 11.2787 26.5508C11.447 26.5508 11.6153 26.4887 11.7482 26.3558L21.1929 16.9112C21.4499 16.6542 21.4499 16.2289 21.1929 15.972C20.936 15.7151 20.5107 15.7151 20.2538 15.972L10.8091 25.4167C10.5433 25.6736 10.5433 26.0989 10.8091 26.3558Z" fill="black"/>
</svg>
