<svg width="32" height="32" viewBox="0 0 32 32" fill="none" xmlns="http://www.w3.org/2000/svg">
<path d="M25.22 18.3657C25.0568 18.3657 24.9017 18.431 24.7875 18.5452C24.6733 18.6595 24.608 18.8145 24.608 18.9777C24.608 19.1409 24.6733 19.296 24.7875 19.4102C24.9017 19.5245 25.0568 19.5897 25.22 19.5897C25.3832 19.5897 25.5382 19.5245 25.6525 19.4102C25.7667 19.296 25.832 19.1409 25.832 18.9777C25.832 18.8145 25.7667 18.6595 25.6525 18.5452C25.5382 18.431 25.375 18.3657 25.22 18.3657Z" fill="#1D1D1D"/>
<path d="M28.7369 16.2521H27.1946V9.82188C27.1946 9.48731 26.9172 9.20987 26.5826 9.20987H23.5389V4.97475C23.5389 4.64019 23.2614 4.36274 22.9269 4.36274H14.7096V3.61201C14.7096 3.27744 14.4322 3 14.0976 3H5.26016C4.92559 3 4.64815 3.27744 4.64815 3.61201V9.20987H2.58363C2.24906 9.20987 1.97162 9.48731 1.97162 9.82188V28.3944C1.97162 28.7289 2.24906 29.0064 2.58363 29.0064H26.5908C26.9253 29.0064 27.2028 28.7289 27.2028 28.3944V21.9642H28.745C29.455 21.9642 30.0343 21.3848 30.0343 20.6749V17.5495C30.0262 16.8314 29.4468 16.2521 28.7369 16.2521ZM22.3149 5.58676V9.20987H21.1316V7.75736C21.1316 7.4228 20.846 7.14535 20.5115 7.14535C20.4135 7.14535 20.3401 7.07191 20.3319 6.98215C20.2993 6.67206 20.0382 6.42726 19.7199 6.42726H17.2229C16.9128 6.42726 16.6436 6.6639 16.6109 6.97399C16.6028 7.07191 16.5212 7.13719 16.4314 7.13719H16.4232C16.0887 7.13719 15.8112 7.41464 15.8112 7.7492V9.20171H14.7096V5.57861H22.3149V5.58676ZM17.0352 9.20987V8.23065C17.2964 8.10825 17.5167 7.90425 17.6636 7.65128H19.2874C19.4262 7.90425 19.6465 8.10825 19.9076 8.23065V9.20987H17.0352ZM5.87217 4.21586H13.4774V4.96659V9.20171H12.2942V6.3783C12.2942 6.2151 12.2289 6.05189 12.1065 5.93765C11.9923 5.82341 11.8291 5.75813 11.6659 5.76629C11.5761 5.76629 11.5027 5.69285 11.4863 5.60309C11.4537 5.293 11.1926 5.05636 10.8743 5.05636H8.37733C8.06725 5.05636 7.79796 5.293 7.76532 5.60309C7.75716 5.69285 7.68372 5.76629 7.5858 5.76629C7.42259 5.75813 7.25939 5.82341 7.14515 5.93765C7.02275 6.05189 6.95747 6.2151 6.95747 6.3783V9.20171H5.85585V4.21586H5.87217ZM8.19781 9.20987V6.86791C8.45893 6.74551 8.67926 6.5415 8.82614 6.28854H10.45C10.5887 6.5415 10.8091 6.74551 11.0702 6.86791V9.20987H8.19781ZM25.9706 24.0613H24.5671C24.1754 24.0613 23.8571 24.3877 23.8571 24.7957C23.8571 25.2037 24.1754 25.5302 24.5671 25.5302H25.9706V27.7905H3.19564V25.5302H4.59918C4.99087 25.5302 5.30912 25.2037 5.30912 24.7957C5.30912 24.3877 4.99087 24.0613 4.59918 24.0613H3.19564V14.1549H4.59918C4.99087 14.1549 5.30912 13.8285 5.30912 13.4205C5.30912 13.0125 4.99087 12.6861 4.59918 12.6861H3.19564V10.4257H5.26832H14.0976H25.9788V12.6861H24.5752C24.1835 12.6861 23.8653 13.0125 23.8653 13.4205C23.8653 13.8285 24.1835 14.1549 24.5752 14.1549H25.9788V16.2521H23.8571C23.1472 16.2521 22.5678 16.8314 22.5678 17.5414V20.6667C22.5678 21.3766 23.1472 21.956 23.8571 21.956H25.9788V24.0613H25.9706ZM28.8022 20.6667C28.8022 20.7075 28.7695 20.732 28.7369 20.732H26.5908H26.5826H26.5744H23.849C23.8082 20.732 23.7837 20.6994 23.7837 20.6667V17.5414C23.7837 17.5006 23.8163 17.4761 23.849 17.4761H28.7369C28.7777 17.4761 28.8022 17.5087 28.8022 17.5414V20.6667Z" fill="#1D1D1D"/>
<path d="M10.3033 12.686H7.4473C7.05561 12.686 6.73737 13.0124 6.73737 13.4204C6.73737 13.8285 7.05561 14.1549 7.4473 14.1549H10.3033C10.695 14.1549 11.0133 13.8285 11.0133 13.4204C11.0133 13.0206 10.695 12.686 10.3033 12.686Z" fill="#1D1D1D"/>
<path d="M16.0068 12.686H13.1508C12.7591 12.686 12.4409 13.0124 12.4409 13.4204C12.4409 13.8285 12.7591 14.1549 13.1508 14.1549H16.0068C16.3985 14.1549 16.7168 13.8285 16.7168 13.4204C16.7168 13.0206 16.3985 12.686 16.0068 12.686Z" fill="#1D1D1D"/>
<path d="M21.7189 12.686H18.8629C18.4712 12.686 18.153 13.0124 18.153 13.4204C18.153 13.8285 18.4712 14.1549 18.8629 14.1549H21.7189C22.1106 14.1549 22.4289 13.8285 22.4289 13.4204C22.4289 13.0206 22.1106 12.686 21.7189 12.686Z" fill="#1D1D1D"/>
<path d="M16.0068 24.061H13.1508C12.7591 24.061 12.4409 24.3874 12.4409 24.7954C12.4409 25.2035 12.7591 25.5299 13.1508 25.5299H16.0068C16.3985 25.5299 16.7168 25.2035 16.7168 24.7954C16.7168 24.3874 16.3985 24.061 16.0068 24.061Z" fill="#1D1D1D"/>
<path d="M21.7189 24.061H18.8629C18.4712 24.061 18.153 24.3874 18.153 24.7954C18.153 25.2035 18.4712 25.5299 18.8629 25.5299H21.7189C22.1106 25.5299 22.4289 25.2035 22.4289 24.7954C22.4289 24.3874 22.1106 24.061 21.7189 24.061Z" fill="#1D1D1D"/>
<path d="M10.3033 24.061H7.4473C7.05561 24.061 6.73737 24.3874 6.73737 24.7954C6.73737 25.2035 7.05561 25.5299 7.4473 25.5299H10.3033C10.695 25.5299 11.0133 25.2035 11.0133 24.7954C11.0133 24.3874 10.695 24.061 10.3033 24.061Z" fill="#1D1D1D"/>
</svg>
