<svg width="32" height="32" viewBox="0 0 32 32" fill="none" xmlns="http://www.w3.org/2000/svg">
<path d="M16 0C8.09219 0 1.65875 6.43344 1.65875 14.3413V21.5291C1.65875 22.4247 2.38738 23.1533 3.28294 23.1533H3.87044V23.1879C3.87044 24.0834 4.59907 24.8121 5.49463 24.8121H6.60044C7.496 24.8121 8.22463 24.0834 8.22463 23.1879V16.5529C8.22463 15.6573 7.496 14.9287 6.60044 14.9287H5.49463C4.59907 14.9287 3.87044 15.6573 3.87044 16.5529V16.5874H2.69544V14.3412C2.69544 7.00506 8.66382 1.03663 16 1.03663C23.3362 1.03663 29.3046 7.005 29.3046 14.3412V16.5874H28.1296V16.5529C28.1296 15.6573 27.401 14.9287 26.5054 14.9287H25.3996C24.5041 14.9287 23.7754 15.6573 23.7754 16.5529V23.1879C23.7754 24.0834 24.5041 24.8121 25.3996 24.8121H26.5054C27.401 24.8121 28.1296 24.0834 28.1296 23.1879V23.1533H28.1799C27.9234 26.7534 25.0167 29.6319 21.4049 29.8444C21.1843 29.2091 20.5799 28.7516 19.8704 28.7516H18.2117C17.6209 28.7516 17.1404 29.2322 17.1404 29.8229V30.9287C17.1404 31.5194 17.621 31.9999 18.2117 31.9999H19.8704C20.5891 31.9999 21.1998 31.5306 21.4132 30.8826C25.6203 30.6622 29.0035 27.279 29.2238 23.0719C29.8719 22.8584 30.3413 22.2478 30.3413 21.5291V14.3413C30.3413 6.43344 23.9078 0 16 0ZM4.90713 16.5529C4.90713 16.229 5.17069 15.9654 5.49463 15.9654H6.60044C6.92438 15.9654 7.18794 16.229 7.18794 16.5529V23.1879C7.18794 23.5119 6.92438 23.7754 6.60044 23.7754H5.49463C5.17069 23.7754 4.90713 23.5119 4.90713 23.1879V16.5529ZM3.87044 17.6242V22.1166H3.28294C2.959 22.1166 2.69544 21.8531 2.69544 21.5291V17.6242H3.87044ZM27.0929 23.1879C27.0929 23.5118 26.8293 23.7754 26.5054 23.7754H25.3996C25.0756 23.7754 24.8121 23.5118 24.8121 23.1879V16.5529C24.8121 16.2289 25.0756 15.9654 25.3996 15.9654H26.5054C26.8293 15.9654 27.0929 16.2289 27.0929 16.5529V23.1879ZM19.8704 30.9633H18.2117C18.1926 30.9633 18.1771 30.9478 18.1771 30.9287V29.8229C18.1771 29.8039 18.1926 29.7884 18.2117 29.7884H19.8704C20.1944 29.7884 20.4579 30.0519 20.4579 30.3759C20.4579 30.6999 20.1944 30.9633 19.8704 30.9633ZM29.3046 21.5291C29.3046 21.8531 29.041 22.1166 28.7171 22.1166H28.1296V17.6242H29.3045L29.3046 21.5291Z" fill="#1D1D1D"/>
<path d="M19.3175 18.7993C18.7268 18.7993 18.2463 19.2799 18.2463 19.8706C18.2463 20.4613 18.7268 20.9418 19.3175 20.9418C19.9082 20.9418 20.3888 20.4612 20.3888 19.8706C20.3888 19.2799 19.9082 18.7993 19.3175 18.7993Z" fill="black"/>
<path d="M16 18.7993C15.4093 18.7993 14.9288 19.2799 14.9288 19.8706C14.9288 20.4613 15.4093 20.9418 16 20.9418C16.5908 20.9418 17.0713 20.4612 17.0713 19.8706C17.0713 19.2799 16.5908 18.7993 16 18.7993Z" fill="black"/>
<path d="M20.4233 14.376H11.5767C10.3762 14.376 9.39954 15.3527 9.39954 16.5531V23.1881C9.39954 24.3885 10.3762 25.3652 11.5767 25.3652H16.5875V26.668C16.5875 27.0366 16.8075 27.366 17.148 27.507C17.261 27.5539 17.3793 27.5765 17.4964 27.5765C17.7322 27.5765 17.9635 27.4843 18.1376 27.3101L20.0825 25.3652H20.4233C21.6237 25.3652 22.6004 24.3885 22.6004 23.1881V16.5531C22.6004 15.3526 21.6237 14.376 20.4233 14.376ZM21.5637 23.188C21.5637 23.8169 21.0521 24.3284 20.4233 24.3284H19.8678C19.7303 24.3284 19.5985 24.383 19.5013 24.4803L17.6242 26.3574V24.8468C17.6242 24.5605 17.3921 24.3284 17.1058 24.3284H11.5766C10.9478 24.3284 10.4362 23.8169 10.4362 23.188V16.553C10.4362 15.9242 10.9478 15.4127 11.5766 15.4127H20.4232C21.052 15.4127 21.5636 15.9242 21.5636 16.553V23.188H21.5637Z" fill="black"/>
<path d="M12.6825 18.7993C12.0918 18.7993 11.6113 19.2799 11.6113 19.8706C11.6113 20.4613 12.0918 20.9418 12.6825 20.9418C13.2732 20.9418 13.7538 20.4613 13.7538 19.8706C13.7538 19.2799 13.2733 18.7993 12.6825 18.7993Z" fill="black"/>
</svg>
